{"title":"The Nut Job (2014) Greek Audio DVDRip x264 AC3-N3kr4","uid":11244506,"size":1521492012,"categoryP":"video","categoryS":"movies","magnet":"?xt=urn:btih:4be2cba9140e24eda24c88710e84f078359b4790&amp;dn=The+Nut+Job+%282014%29+Greek+Audio+DVDRip+x264+AC3-N3kr4&amp;tr=udp%3A%2F%2Ftracker.openbittorrent.com%3A80&amp;tr=udp%3A%2F%2Fopen.demonii.com%3A1337&amp;tr=udp%3A%2F%2Ftracker.coppersurfer.tk%3A6969&amp;tr=udp%3A%2F%2Fexodus.desync.com%3A6969","seeders":24,"leechers":2,"uploader":"Falcon.G13","files":1,"time":1413719292,"description":"            The Nut Job (2014) Greek Audio\n\n &lt;a href=&quot;\nhttp://i.imgur.com/2AJoHm5.jpg&quot; rel=&quot;nofollow&quot; target=&quot;_NEW&quot;&gt;\nhttp://i.imgur.com/2AJoHm5.jpg&lt;/a&gt;\n &lt;a href=&quot;\nhttp://i.imgur.com/yNmGm3z.jpg&quot; rel=&quot;nofollow&quot; target=&quot;_NEW&quot;&gt;\nhttp://i.imgur.com/yNmGm3z.jpg&lt;/a&gt; &lt;a href=&quot;\nhttp://i.imgur.com/K1c7K2t.jpg&quot; rel=&quot;nofollow&quot; target=&quot;_NEW&quot;&gt;\nhttp://i.imgur.com/K1c7K2t.jpg&lt;/a&gt; &lt;a href=&quot;\nhttp://i.imgur.com/CcsxehP.jpg&quot; rel=&quot;nofollow&quot; target=&quot;_NEW&quot;&gt;\nhttp://i.imgur.com/CcsxehP.jpg&lt;/a&gt; &lt;a href=&quot;\nhttp://i.imgur.com/OneVIl2.jpg&quot; rel=&quot;nofollow&quot; target=&quot;_NEW&quot;&gt;\nhttp://i.imgur.com/OneVIl2.jpg&lt;/a&gt;\n\nGeneral\nComplete name : The Nut Job (2014) Greek Audio DVDRip x264 AC3-N3kr4.avi\nFormat : AVI\nFormat/Info : Audio Video Interleave\nFormat profile : OpenDML\nFile size : 1.42 GiB\nDuration : 1h 22mn\nOverall bit rate : 2 471 Kbp\nWriting application : Lavf54.63.104\n\n\nVideo\nID : 0\nFormat : AVC\nFormat/Info : Advanced Video Codec\nFormat profile : Main@L3.0\nFormat settings, CABAC : Yes\nFormat settings, ReFrames : 1 frame\nCodec ID : H264\nDuration : 1h 22mn\nBit rate : 1 818 Kbps\nWidth : 720 pixels\nHeight : 404 pixels\nDisplay aspect ratio : 16:9\nFrame rate : 25.000 fps\nColor space : YUV\nChroma subsampling : 4:2:0\nBit depth : 8 bits\nScan type : Progressive\nBits/(Pixel*Frame) : 0.250\nStream size : 1.04 GiB (74%)\nWriting library : x264 core\nColor primaries : BT.601 NTSC\nTransfer characteristics : BT.709\nMatrix coefficients : BT.601\n\nAudio\nID : 1\nFormat : AC-3\nFormat/Info : Audio Coding 3\nMode extension : CM (complete main)\nFormat settings, Endianness : Big\nCodec ID : 2000\nDuration : 1h 22mn\nBit rate mode : Constant\nBit rate : 640 Kbps\nChannel(s) : 6 channels\nChannel positions : Front: L C R, Side: L R, LFE\nSampling rate : 48.0 KHz\nBit depth : 16 bits\nCompression mode : Lossy\nStream size : 376 MiB (26%)\nAlignment : Aligned on interleaves\nInterleave, duration : 32 ms (0.80 video frame)","torrent":{"xt":"urn:btih:4be2cba9140e24eda24c88710e84f078359b4790","amp;dn":"The+Nut+Job+%282014%29+Greek+Audio+DVDRip+x264+AC3-N3kr4","amp;tr":["udp%3A%2F%2Ftracker.openbittorrent.com%3A80","udp%3A%2F%2Fopen.demonii.com%3A1337","udp%3A%2F%2Ftracker.coppersurfer.tk%3A6969","udp%3A%2F%2Fexodus.desync.com%3A6969"],"infoHash":"4be2cba9140e24eda24c88710e84f078359b4790","infoHashBuffer":{"type":"Buffer","data":[75,226,203,169,20,14,36,237,162,76,136,113,14,132,240,120,53,155,71,144]},"announce":[],"urlList":[]}}